<svg width="30" height="30" viewBox="0 0 30 30" fill="none" xmlns="http://www.w3.org/2000/svg">
<path d="M28.9984 0H5.00781C4.45724 0 4.00625 0.523656 4.00625 1.17823V2.35645H3.00469C2.45412 2.35645 2.00312 2.88011 2.00312 3.53468V4.71291H1.00156C0.450996 4.71291 0 5.23656 0 5.89113V28.8218C0 29.4695 0.445139 30 1.00156 30H24.9922C25.5428 30 25.9938 29.4763 25.9938 28.8218V27.6435H26.9953C27.5459 27.6435 27.9969 27.1199 27.9969 26.4653V25.2871H28.9984C29.549 25.2871 30 24.7634 30 24.1089V1.17823C30 0.523656 29.5549 0 28.9984 0ZM24.998 19.017L22.3799 15.4892C22.1808 15.2205 21.8294 15.2205 21.6244 15.4892L18.4615 19.7474L9.83991 10.735C9.65248 10.5351 9.36548 10.5351 9.17805 10.735L1.01328 19.2719V6.46991C1.01328 6.14607 1.23585 5.88424 1.51113 5.88424H24.5002C24.7755 5.88424 24.998 6.14607 24.998 6.46991V19.017ZM26.5033 26.4584H26.0055V5.87735C26.0055 5.22967 25.5603 4.69913 25.0039 4.69913H3.01054V4.11346C3.01054 3.78962 3.23311 3.52779 3.5084 3.52779H26.4975C26.7727 3.52779 26.9953 3.78962 26.9953 4.11346L27.0012 25.8728C27.0012 26.1966 26.7786 26.4584 26.5033 26.4584ZM28.5006 24.102H28.0027V3.52779C28.0027 2.88011 27.5576 2.34956 27.0012 2.34956H5.00781V1.7639C5.00781 1.44006 5.23038 1.17823 5.50566 1.17823H28.4947C28.77 1.17823 28.9926 1.44006 28.9926 1.7639V23.5163H28.9984C28.9984 23.8401 28.7759 24.102 28.5006 24.102Z" fill="black"/>
<path d="M18.0047 9.40515C16.9036 9.40515 16.0074 10.4594 16.0074 11.7547C16.0074 13.0501 16.9036 14.1043 18.0047 14.1043C19.1058 14.1043 20.002 13.0501 20.002 11.7547C20.002 10.4594 19.1058 9.40515 18.0047 9.40515Z" fill="black"/>
</svg>
