<svg width="14" height="24" viewBox="0 0 14 24" fill="none" xmlns="http://www.w3.org/2000/svg">
<path d="M4.74414 16.7251V16.5227C4.75835 15.2017 4.88974 14.1506 5.13832 13.3693C5.394 12.5881 5.75621 11.956 6.22496 11.473C6.69371 10.9901 7.25835 10.5497 7.91886 10.152C8.34499 9.8821 8.72852 9.58026 9.06943 9.24645C9.41033 8.91264 9.68022 8.52912 9.87908 8.09588C10.0779 7.66264 10.1774 7.18324 10.1774 6.65767C10.1774 6.02557 10.0282 5.47869 9.72994 5.01705C9.43164 4.5554 9.03391 4.20028 8.53675 3.9517C8.0467 3.69602 7.49982 3.56818 6.89613 3.56818C6.34925 3.56818 5.82724 3.68182 5.33008 3.90909C4.83292 4.13636 4.42099 4.49148 4.09428 4.97443C3.76758 5.45028 3.57937 6.06463 3.52965 6.81747H0.291016C0.340732 5.53906 0.663885 4.45952 1.26048 3.57883C1.85707 2.69105 2.64542 2.01989 3.62553 1.56534C4.61275 1.11079 5.70295 0.883522 6.89613 0.883522C8.20295 0.883522 9.34641 1.12855 10.3265 1.61861C11.3066 2.10156 12.0666 2.77983 12.6064 3.65341C13.1532 4.51989 13.4267 5.53196 13.4267 6.68963C13.4267 7.48509 13.3024 8.20241 13.0538 8.84162C12.8052 9.47372 12.4501 10.0384 11.9885 10.5355C11.5339 11.0327 10.987 11.473 10.3478 11.8565C9.74414 12.233 9.25408 12.6236 8.87766 13.0284C8.50835 13.4332 8.23846 13.9126 8.068 14.4666C7.89755 15.0206 7.80522 15.706 7.79102 16.5227V16.7251H4.74414ZM6.35281 23.2024C5.77042 23.2024 5.26971 22.9964 4.85067 22.5845C4.43164 22.1655 4.22212 21.6612 4.22212 21.0717C4.22212 20.4893 4.43164 19.9922 4.85067 19.5803C5.26971 19.1612 5.77042 18.9517 6.35281 18.9517C6.92809 18.9517 7.42525 19.1612 7.84428 19.5803C8.27042 19.9922 8.48349 20.4893 8.48349 21.0717C8.48349 21.4624 8.38406 21.821 8.18519 22.1477C7.99343 22.4673 7.73775 22.723 7.41815 22.9148C7.09854 23.1065 6.74343 23.2024 6.35281 23.2024Z" fill="black"/>
</svg>
