<svg width="185" height="96" viewBox="0 0 185 96" fill="none" xmlns="http://www.w3.org/2000/svg">
<g filter="url(#filter0_d_2_108)">
<path d="M84.3004 70.9489L79.6129 71.4602C79.4804 70.9867 79.2483 70.5417 78.9169 70.125C78.5949 69.7083 78.1593 69.3722 77.6101 69.1165C77.0608 68.8608 76.3885 68.733 75.593 68.733C74.523 68.733 73.6233 68.965 72.8942 69.429C72.1745 69.893 71.8194 70.4943 71.8288 71.233C71.8194 71.8674 72.0514 72.3835 72.5249 72.7812C73.0078 73.179 73.8033 73.5057 74.9112 73.7614L78.6328 74.5568C80.6972 75.0019 82.2313 75.7074 83.2351 76.6733C84.2483 77.6392 84.7597 78.9034 84.7692 80.4659C84.7597 81.839 84.3572 83.0511 83.5618 84.1023C82.7758 85.1439 81.6821 85.9583 80.2805 86.5455C78.879 87.1326 77.2692 87.4261 75.451 87.4261C72.7805 87.4261 70.6309 86.8674 69.0021 85.75C67.3733 84.6231 66.4027 83.0559 66.0902 81.0483L71.1044 80.5653C71.3317 81.5502 71.8146 82.2936 72.5533 82.7955C73.2919 83.2973 74.2531 83.5483 75.4368 83.5483C76.6584 83.5483 77.6385 83.2973 78.3771 82.7955C79.1252 82.2936 79.4993 81.6733 79.4993 80.9347C79.4993 80.3097 79.2578 79.7936 78.7749 79.3864C78.3014 78.9792 77.5627 78.6667 76.5589 78.4489L72.8374 77.6676C70.7446 77.232 69.1963 76.4981 68.1925 75.4659C67.1887 74.4242 66.6915 73.108 66.701 71.517C66.6915 70.1723 67.0561 69.0076 67.7947 68.0227C68.5429 67.0284 69.5798 66.2614 70.9055 65.7216C72.2408 65.1723 73.7796 64.8977 75.522 64.8977C78.0788 64.8977 80.0911 65.4422 81.5589 66.5312C83.0362 67.6203 83.95 69.0928 84.3004 70.9489ZM93.8513 57.9091V87H88.7092V57.9091H93.8513ZM98.8389 87V65.1818H103.981V87H98.8389ZM101.424 62.0852C100.61 62.0852 99.909 61.8153 99.3219 61.2756C98.7348 60.7263 98.4412 60.0682 98.4412 59.3011C98.4412 58.5246 98.7348 57.8665 99.3219 57.3267C99.909 56.7775 100.61 56.5028 101.424 56.5028C102.248 56.5028 102.949 56.7775 103.526 57.3267C104.114 57.8665 104.407 58.5246 104.407 59.3011C104.407 60.0682 104.114 60.7263 103.526 61.2756C102.949 61.8153 102.248 62.0852 101.424 62.0852ZM117.065 87.3835C115.351 87.3835 113.817 86.9432 112.463 86.0625C111.109 85.1818 110.039 83.9034 109.253 82.2273C108.467 80.5511 108.074 78.5152 108.074 76.1193C108.074 73.6951 108.471 71.6496 109.267 69.983C110.072 68.3068 111.156 67.0426 112.52 66.1903C113.883 65.3286 115.403 64.8977 117.079 64.8977C118.358 64.8977 119.409 65.1155 120.233 65.5511C121.057 65.9773 121.71 66.4934 122.193 67.0994C122.676 67.696 123.05 68.2595 123.315 68.7898H123.528V57.9091H128.685V87H123.628V83.5625H123.315C123.05 84.0928 122.667 84.6562 122.165 85.2528C121.663 85.84 121 86.3419 120.176 86.7585C119.352 87.1752 118.315 87.3835 117.065 87.3835ZM118.5 83.1648C119.589 83.1648 120.517 82.8712 121.284 82.2841C122.051 81.6875 122.633 80.8589 123.031 79.7983C123.429 78.7377 123.628 77.5019 123.628 76.0909C123.628 74.6799 123.429 73.4536 123.031 72.4119C122.643 71.3703 122.065 70.5606 121.298 69.983C120.541 69.4053 119.608 69.1165 118.5 69.1165C117.354 69.1165 116.398 69.4148 115.631 70.0114C114.863 70.608 114.286 71.4318 113.898 72.483C113.509 73.5341 113.315 74.7367 113.315 76.0909C113.315 77.4545 113.509 78.6714 113.898 79.7415C114.295 80.8021 114.878 81.6402 115.645 82.2557C116.421 82.8617 117.373 83.1648 118.5 83.1648ZM143.523 87.4261C141.336 87.4261 139.446 86.9716 137.855 86.0625C136.274 85.1439 135.057 83.8466 134.205 82.1705C133.353 80.4848 132.926 78.5009 132.926 76.2188C132.926 73.9744 133.353 72.0047 134.205 70.3097C135.067 68.6051 136.269 67.2794 137.813 66.3324C139.356 65.3759 141.17 64.8977 143.253 64.8977C144.598 64.8977 145.867 65.1155 147.06 65.5511C148.263 65.9773 149.323 66.6402 150.242 67.5398C151.17 68.4394 151.899 69.5852 152.429 70.9773C152.96 72.3598 153.225 74.0076 153.225 75.9205V77.4972H135.341V74.0312H148.296C148.286 73.0464 148.073 72.1705 147.657 71.4034C147.24 70.6269 146.657 70.0161 145.909 69.571C145.171 69.1259 144.309 68.9034 143.324 68.9034C142.273 68.9034 141.35 69.1591 140.554 69.6705C139.759 70.1723 139.139 70.8352 138.693 71.6591C138.258 72.4735 138.035 73.3684 138.026 74.3438V77.3693C138.026 78.6383 138.258 79.7273 138.722 80.6364C139.186 81.536 139.835 82.2273 140.668 82.7102C141.501 83.1837 142.477 83.4205 143.594 83.4205C144.342 83.4205 145.019 83.3163 145.625 83.108C146.231 82.8902 146.757 82.5729 147.202 82.1562C147.647 81.7396 147.983 81.2235 148.211 80.608L153.012 81.1477C152.709 82.4167 152.131 83.5246 151.279 84.4716C150.436 85.4091 149.356 86.1383 148.04 86.6591C146.724 87.1705 145.218 87.4261 143.523 87.4261ZM174.519 70.9489L169.832 71.4602C169.699 70.9867 169.467 70.5417 169.136 70.125C168.814 69.7083 168.378 69.3722 167.829 69.1165C167.28 68.8608 166.607 68.733 165.812 68.733C164.742 68.733 163.842 68.965 163.113 69.429C162.393 69.893 162.038 70.4943 162.048 71.233C162.038 71.8674 162.27 72.3835 162.744 72.7812C163.227 73.179 164.022 73.5057 165.13 73.7614L168.852 74.5568C170.916 75.0019 172.45 75.7074 173.454 76.6733C174.467 77.6392 174.978 78.9034 174.988 80.4659C174.978 81.839 174.576 83.0511 173.781 84.1023C172.995 85.1439 171.901 85.9583 170.499 86.5455C169.098 87.1326 167.488 87.4261 165.67 87.4261C162.999 87.4261 160.85 86.8674 159.221 85.75C157.592 84.6231 156.621 83.0559 156.309 81.0483L161.323 80.5653C161.55 81.5502 162.033 82.2936 162.772 82.7955C163.511 83.2973 164.472 83.5483 165.656 83.5483C166.877 83.5483 167.857 83.2973 168.596 82.7955C169.344 82.2936 169.718 81.6733 169.718 80.9347C169.718 80.3097 169.477 79.7936 168.994 79.3864C168.52 78.9792 167.781 78.6667 166.778 78.4489L163.056 77.6676C160.963 77.232 159.415 76.4981 158.411 75.4659C157.407 74.4242 156.91 73.108 156.92 71.517C156.91 70.1723 157.275 69.0076 158.013 68.0227C158.762 67.0284 159.799 66.2614 161.124 65.7216C162.46 65.1723 163.998 64.8977 165.741 64.8977C168.298 64.8977 170.31 65.4422 171.778 66.5312C173.255 67.6203 174.169 69.0928 174.519 70.9489Z" fill="black"/>
<path d="M16.6021 5.90909H23.051L31.6874 26.9886H32.0283L40.6646 5.90909H47.1135V35H42.0567V15.0142H41.7868L33.747 34.9148H29.9686L21.9288 14.9716H21.6589V35H16.6021V5.90909ZM58.6033 35.4403C57.2207 35.4403 55.9754 35.1941 54.8675 34.7017C53.769 34.1998 52.8978 33.4612 52.2538 32.4858C51.6194 31.5104 51.3021 30.3078 51.3021 28.8778C51.3021 27.6468 51.5294 26.6288 51.9839 25.8239C52.4385 25.0189 53.0588 24.375 53.8447 23.892C54.6307 23.4091 55.5161 23.0445 56.501 22.7983C57.4953 22.5426 58.5228 22.358 59.5834 22.2443C60.8618 22.1117 61.8987 21.9934 62.6942 21.8892C63.4896 21.7756 64.0673 21.6051 64.4271 21.3778C64.7964 21.1411 64.9811 20.7765 64.9811 20.2841V20.1989C64.9811 19.1288 64.6639 18.3002 64.0294 17.7131C63.3949 17.1259 62.4811 16.8324 61.2879 16.8324C60.0285 16.8324 59.0294 17.107 58.2908 17.6562C57.5616 18.2055 57.0692 18.8542 56.8135 19.6023L52.0124 18.9205C52.3911 17.5947 53.0161 16.4867 53.8874 15.5966C54.7586 14.697 55.8239 14.0246 57.0834 13.5795C58.3428 13.125 59.7349 12.8977 61.2595 12.8977C62.3107 12.8977 63.3571 13.0208 64.3987 13.267C65.4404 13.5133 66.3921 13.9205 67.2538 14.4886C68.1156 15.0473 68.8069 15.8097 69.3277 16.7756C69.858 17.7415 70.1232 18.9489 70.1232 20.3977V35H65.18V32.0028H65.0095C64.697 32.6089 64.2567 33.1771 63.6885 33.7074C63.1298 34.2282 62.4243 34.6496 61.572 34.9716C60.7292 35.2841 59.7396 35.4403 58.6033 35.4403ZM59.9385 31.6619C60.9707 31.6619 61.8656 31.4583 62.6232 31.0511C63.3807 30.6345 63.9631 30.0852 64.3703 29.4034C64.787 28.7216 64.9953 27.9782 64.9953 27.1733V24.6023C64.8343 24.7348 64.5597 24.858 64.1714 24.9716C63.7927 25.0852 63.3665 25.1847 62.893 25.2699C62.4196 25.3551 61.9508 25.4309 61.4868 25.4972C61.0228 25.5634 60.6203 25.6203 60.2794 25.6676C59.5124 25.7718 58.8258 25.9422 58.2197 26.179C57.6137 26.4157 57.1355 26.7472 56.7851 27.1733C56.4347 27.59 56.2595 28.1297 56.2595 28.7926C56.2595 29.7396 56.6052 30.4545 57.2964 30.9375C57.9877 31.4205 58.8684 31.6619 59.9385 31.6619ZM84.4822 43.6364C82.6357 43.6364 81.0495 43.3854 79.7237 42.8835C78.398 42.3911 77.3326 41.7282 76.5277 40.8949C75.7228 40.0616 75.1641 39.1383 74.8516 38.125L79.4822 37.0028C79.6906 37.429 79.9936 37.8504 80.3913 38.267C80.7891 38.6932 81.3241 39.0436 81.9964 39.3182C82.6783 39.6023 83.5353 39.7443 84.5675 39.7443C86.0258 39.7443 87.2332 39.3892 88.1896 38.679C89.1461 37.9782 89.6243 36.8229 89.6243 35.2131V31.0795H89.3686C89.1035 31.6098 88.7152 32.1544 88.2038 32.7131C87.7019 33.2718 87.0343 33.7405 86.201 34.1193C85.3771 34.4981 84.3402 34.6875 83.0902 34.6875C81.4141 34.6875 79.8942 34.2945 78.5305 33.5085C77.1764 32.7131 76.0968 31.5294 75.2919 29.9574C74.4964 28.3759 74.0987 26.3968 74.0987 24.0199C74.0987 21.6241 74.4964 19.6023 75.2919 17.9545C76.0968 16.2973 77.1811 15.0426 78.5447 14.1903C79.9084 13.3286 81.4283 12.8977 83.1044 12.8977C84.3828 12.8977 85.4339 13.1155 86.2578 13.5511C87.0911 13.9773 87.754 14.4934 88.2464 15.0994C88.7389 15.696 89.1129 16.2595 89.3686 16.7898H89.6527V13.1818H94.7237V35.3551C94.7237 37.2206 94.2786 38.7642 93.3885 39.9858C92.4983 41.2074 91.2815 42.1212 89.7379 42.7273C88.1944 43.3333 86.4425 43.6364 84.4822 43.6364ZM84.5249 30.6534C85.6139 30.6534 86.5419 30.3883 87.3089 29.858C88.076 29.3277 88.6584 28.5653 89.0561 27.571C89.4538 26.5767 89.6527 25.3835 89.6527 23.9915C89.6527 22.6184 89.4538 21.4157 89.0561 20.3835C88.6679 19.3513 88.0902 18.5511 87.3232 17.983C86.5656 17.4053 85.6328 17.1165 84.5249 17.1165C83.379 17.1165 82.4226 17.4148 81.6555 18.0114C80.8885 18.608 80.3108 19.4271 79.9226 20.4688C79.5343 21.5009 79.3402 22.6752 79.3402 23.9915C79.3402 25.3267 79.5343 26.4962 79.9226 27.5C80.3203 28.4943 80.9027 29.2708 81.6697 29.8295C82.4463 30.3788 83.398 30.6534 84.5249 30.6534ZM99.6936 35V13.1818H104.836V35H99.6936ZM102.279 10.0852C101.464 10.0852 100.764 9.81534 100.177 9.27557C99.5894 8.72632 99.2959 8.06818 99.2959 7.30114C99.2959 6.52462 99.5894 5.86648 100.177 5.3267C100.764 4.77746 101.464 4.50284 102.279 4.50284C103.103 4.50284 103.803 4.77746 104.381 5.3267C104.968 5.86648 105.262 6.52462 105.262 7.30114C105.262 8.06818 104.968 8.72632 104.381 9.27557C103.803 9.81534 103.103 10.0852 102.279 10.0852ZM119.34 35.4261C117.162 35.4261 115.292 34.9479 113.73 33.9915C112.177 33.035 110.979 31.714 110.136 30.0284C109.302 28.3333 108.886 26.3826 108.886 24.1761C108.886 21.9602 109.312 20.0047 110.164 18.3097C111.016 16.6051 112.219 15.2794 113.772 14.3324C115.335 13.3759 117.181 12.8977 119.312 12.8977C121.083 12.8977 122.65 13.2244 124.014 13.8778C125.387 14.5218 126.48 15.4356 127.295 16.6193C128.109 17.7936 128.573 19.1667 128.687 20.7386H123.772C123.573 19.6875 123.1 18.8116 122.352 18.1108C121.613 17.4006 120.623 17.0455 119.383 17.0455C118.332 17.0455 117.409 17.3295 116.613 17.8977C115.818 18.4564 115.197 19.2614 114.752 20.3125C114.317 21.3636 114.099 22.6231 114.099 24.0909C114.099 25.5777 114.317 26.8561 114.752 27.9261C115.188 28.9867 115.799 29.8059 116.585 30.3835C117.38 30.9517 118.313 31.2358 119.383 31.2358C120.141 31.2358 120.818 31.0937 121.414 30.8097C122.02 30.5161 122.527 30.0947 122.934 29.5455C123.341 28.9962 123.621 28.3286 123.772 27.5426H128.687C128.564 29.0862 128.109 30.4545 127.323 31.6477C126.537 32.8314 125.467 33.7595 124.113 34.4318C122.759 35.0947 121.168 35.4261 119.34 35.4261Z" fill="black"/>
</g>
<defs>
<filter id="filter0_d_2_108" x="12.6021" y="4.50284" width="166.386" height="90.9233" filterUnits="userSpaceOnUse" color-interpolation-filters="sRGB">
<feFlood flood-opacity="0" result="BackgroundImageFix"/>
<feColorMatrix in="SourceAlpha" type="matrix" values="0 0 0 0 0 0 0 0 0 0 0 0 0 0 0 0 0 0 127 0" result="hardAlpha"/>
<feOffset dy="4"/>
<feGaussianBlur stdDeviation="2"/>
<feComposite in2="hardAlpha" operator="out"/>
<feColorMatrix type="matrix" values="0 0 0 0 0 0 0 0 0 0 0 0 0 0 0 0 0 0 0.25 0"/>
<feBlend mode="normal" in2="BackgroundImageFix" result="effect1_dropShadow_2_108"/>
<feBlend mode="normal" in="SourceGraphic" in2="effect1_dropShadow_2_108" result="shape"/>
</filter>
</defs>
</svg>
